<svg xmlns="http://www.w3.org/2000/svg" viewBox="0 0 14962.42 5619.94" fill="#1D1D1B">
  <g>
    <path fill-rule="evenodd" d="M7846.24,997.68l128.36-152.23c13.32-17.14,21.58-22.65,34.54-40.35,23.81-32.51,150.68-167.7,155.92-192.16,5.87-27.3-8.41-33.23-21.64-47.98-20.26-22.56-43.96-56.3-64.61-78.74l-193.95-228.46c-26.52-29.38-32.78-57.52-85.44-57.52h-642.17c-39.22,0-58.86,29.77-78.74,55.64-59.07,76.89-168.86,193.06-228.4,269.05-12.7,16.21-18.63,20.8-31.83,36.21-46.67,54.54-18.86,65.3,72.09,173.45l128.77,150.38c22.44,26.11,41.45,53.82,64.7,78.5l29.56,35.08c-501.71,156.49-865.92,624.71-865.92,1177.98,0,681.36,552.35,1233.71,1233.71,1233.71s1233.74-552.35,1233.74-1233.71c0-554.29-365.52-1023.22-868.7-1178.85Zm-810.29-398.36c-5.42-5.42-5.42-14.31,0-19.73l171.24-171.24c5.42-5.42,14.3-5.42,19.73,0l171.24,171.24c5.42,5.42,5.42,14.3,0,19.73l-171.24,171.24c-5.42,5.42-14.31,5.42-19.73,0l-171.24-171.24Zm445.24,2645.88c-590.2,0-1068.67-478.47-1068.67-1068.67,0-503.86,348.68-926.28,817.91-1039.1,40.2-9.69,81.33-17.08,123.17-22.02,6.35-.77,12.67-1.49,19.04-2.12,6.38-.66,12.75-1.22,19.16-1.73,7.3-.66,14.66-1.19,22.02-1.61,3.67-.27,7.36-.48,11.06-.66,.42-.03,.86-.06,1.31-.06,3.76-.21,7.51-.36,11.3-.51,1.25-.06,2.5-.12,3.76-.15,4.11-.15,8.22-.3,12.34-.39,4.44-.12,8.88-.21,13.35-.27h1.25c4.32-.06,8.64-.09,12.99-.09,6.71,0,13.38,.06,20.03,.21,3.52,.03,7.03,.12,10.52,.24,1.1,0,2.21,.03,3.31,.09,3.82,.12,7.6,.24,11.39,.42,2,.06,3.99,.15,5.99,.27,3.52,.15,7,.33,10.49,.57,.86,0,1.7,.06,2.53,.15,5.01,.27,10.01,.63,14.99,.98,5.25,.36,10.46,.77,15.68,1.25,10.43,.89,20.8,1.97,31.14,3.22,41.34,4.83,81.99,12.04,121.74,21.52,470.75,111.73,820.9,534.86,820.9,1039.79,0,590.2-478.47,1068.67-1068.7,1068.67Z"/>
    <path d="M8053.47,2704.08c-10.56,0-21.18-3.58-29.9-10.91l-572.03-480.83c-.44-.37-.88-.74-1.31-1.13-4.87-4.35-8.63-9.52-11.22-15.12-2.54-5.48-4.05-11.54-4.27-17.93-.02-.66-.03-1.32-.03-1.99v-539.42c0-25.68,20.82-46.5,46.5-46.5s46.5,20.82,46.5,46.5v518.12l555.7,467.11c19.66,16.52,22.2,45.86,5.68,65.51-9.2,10.94-22.36,16.58-35.62,16.58Z"/>
  </g>
  <g>
    <path d="M957.87,4598.66l-431.74,606.28h439.96v129.12H323.61v-62.85c0-8.17,1.5-16.34,4.52-24.16,2.78-6.84,5.68-12.74,9.1-18.36l.81-1.22,432.84-607.96H344.93v-129.12H972.81v60.65c0,16.28-4.87,32.03-14.42,46.86l-.52,.75Z"/>
    <polygon points="1779.52 5204.93 1778.71 5334.05 1243.45 5334.05 1243.45 4490.39 1778.82 4490.39 1778.82 4619.51 1392.67 4619.51 1392.67 4845.72 1705.43 4845.72 1705.43 4971.42 1392.67 4971.42 1392.67 5204.93 1779.52 5204.93"/>
    <path d="M2738.4,4907.36v338.88l-8.4,6.08c-41.88,30.24-87.24,53.12-134.91,68.12-47.73,15-100.45,22.59-156.64,22.59-66.68,0-127.96-10.6-182.13-31.45-54.16-20.85-101.26-50.63-139.9-88.51-38.87-38-69.05-84-89.73-136.71-20.62-52.54-31.11-111.05-31.11-173.84s10.2-122.05,30.3-174.77c20.22-53.06,49.35-99.06,86.54-136.83,37.19-37.89,83.13-67.6,136.54-88.4,52.89-20.62,112.73-31.05,177.72-31.05,33.08,0,64.01,2.37,91.99,7.18,28.33,4.87,55.03,11.99,79.36,21.2,24.39,9.21,47.33,20.62,68.12,33.77,20.56,12.98,40.14,27.98,58.33,44.6l12.45,11.35-39.74,63.66c-7.82,11.99-18.07,19.64-30.64,23-9.1,2.43-23.64,3.13-41.3-7.41-8.86-5.16-19.23-11.59-31.34-19.41-10.89-7.01-24.04-13.73-39.04-19.99-15.12-6.31-33.71-11.82-55.32-16.45-21.09-4.52-46.75-6.84-76.23-6.84-42.52,0-81.27,6.89-115.16,20.56-33.71,13.61-62.74,33.25-86.37,58.39-23.75,25.26-42.23,56.42-55.09,92.68-12.98,36.67-19.58,78.61-19.58,124.72s6.89,90.83,20.45,128.37c13.38,36.9,32.61,68.65,57.23,94.31,24.62,25.66,54.86,45.42,89.73,58.8,35.63,13.61,76.35,20.51,121.13,20.51,35.16,0,66.73-4,93.9-11.88,23.87-6.95,47.44-16.28,70.21-27.75v-144.01h-104.73c-15.47,0-25.37-6.43-30.99-11.82-8.4-7.99-12.8-18.31-12.8-29.78v-81.91h287.15Z"/>
    <path d="M3395.48,4490.39h-137.29l-337.32,843.67h114c14.14,0,26.42-4.23,36.38-12.45,9.15-7.53,15.58-16.51,19.12-26.65l69.92-180.56h332.56l70.15,181.14c4.29,10.72,10.83,19.7,19.46,26.7,9.67,7.82,21.9,11.82,36.38,11.82h114l-337.37-843.67Zm51.44,504.96h-240.69l115.28-298.21c1.8-4.34,3.53-8.86,5.27-13.67,1.62,4.52,3.19,8.75,4.69,12.74l115.45,299.14Z"/>
    <path d="M4356.8,4983.24c-3.24-4.81-6.72-9.27-10.31-13.44,18.3-6.31,35.45-13.96,51.15-22.82,26.3-14.89,49.06-33.25,67.55-54.63,18.48-21.32,32.79-45.76,42.58-72.64,9.73-26.76,14.66-55.9,14.66-86.54,0-36.61-6.37-70.27-18.94-100.16-12.8-30.41-32.79-56.71-59.38-78.14-26.24-21.14-59.55-37.42-99-48.37-38.35-10.66-84.52-16.1-137.17-16.1h-247.24v843.67h148.7v-335.11h62.1c16.8,0,22.94,2.55,24.39,3.36,4.34,2.32,8.86,6.78,13.61,13.5l208.02,286.28c13.03,20.91,34,31.98,60.54,31.98h136.48l-257.72-350.81Zm-247.41-366.51h98.54c57.87,0,101.2,10.83,128.83,32.15,26.36,20.45,39.22,50.57,39.22,92.16,0,20.68-3.65,39.74-10.72,56.54-7.07,16.63-17.26,30.59-31.17,42.58-14.13,12.16-32.09,21.78-53.47,28.56-22.13,7.07-48.14,10.6-77.16,10.6h-94.08v-262.59Z"/>
    <path d="M5711.21,4490.39v843.67h-135.84v-578.93l-234.72,427.51c-12.16,23.52-31.92,35.97-57.17,35.97h-15.7c-25.2,0-44.95-12.4-57.06-35.92l-239.82-429.94v581.31h-135.84v-843.67h100.45c12.16,0,21.72,1.33,29.2,4,10.08,3.65,18.59,11.7,25.95,24.79l277.94,495.23c2.43,4.92,4.69,9.5,6.78,13.96,2.43-5.1,4.98-10.08,7.7-15.12l272.38-493.84c6.72-12.86,15.58-21.43,26.07-25.08,7.7-2.61,17.26-3.94,29.25-3.94h100.45Z"/>
    <rect x="6047.95" y="4490.39" width="149.28" height="843.67"/>
    <path d="M7029.54,5069.96c0,37.42-6.49,73.16-19.35,106.18-12.98,33.6-32.15,63.03-56.89,87.59-24.85,24.68-55.67,44.26-91.53,58.28-35.63,13.96-76.52,21.03-121.53,21.03-54.74,0-105.43-10.14-150.56-30.12-44.95-19.93-83.94-47.21-115.8-81.04l-10.6-11.24,40.32-66.15c4.4-6.08,9.91-11.3,16.28-15.47,14.95-9.79,33.95-10.6,52.89,1.51,5.97,3.82,12.86,8.75,22.3,15.93,7.53,5.73,16.33,12.17,26.24,19.12,9.04,6.37,19.64,12.34,31.4,17.78,11.59,5.39,24.74,9.79,40.15,13.5,15.06,3.59,32.15,5.39,50.75,5.39,23.34,0,44.31-3.19,62.21-9.5,17.44-6.14,32.38-14.83,44.37-25.84,11.87-10.95,20.74-23.69,27.17-39.04,6.37-15.35,9.62-32.9,9.62-52.14s-4.29-36.26-12.69-48.08c-9.15-12.86-21.66-23.98-37.25-33.08-16.74-9.79-36.09-18.13-57.46-24.85-23.23-7.3-46.81-14.83-70.73-22.48-24.85-7.94-49.24-17.15-72.53-27.23-25.03-10.89-47.62-25.26-67.08-42.75-19.75-17.67-36.03-40.26-48.25-67.02-12.22-26.76-18.48-59.61-18.48-97.72,0-30.76,6.14-61.11,18.19-90.14,12.05-28.96,29.77-54.97,52.77-77.33,23-22.36,51.44-40.38,84.52-53.64,33.14-13.27,71.37-19.93,113.66-19.93,47.21,0,90.89,7.59,129.82,22.65,39.04,15.06,74.03,37.25,103.92,65.92l10.83,10.43-33.83,66.21c-4.87,8.05-10.19,14.13-16.45,18.54-7.42,5.33-16.45,8.11-26.18,8.11-10.89,0-22.13-4.4-34.47-13.5-8.81-6.55-19.06-13.27-30.41-19.99-11.41-6.78-25.84-13.27-42.87-19.23-15.93-5.56-35.86-8.4-59.26-8.4-21.95,0-41.19,2.9-57.29,8.57-15.81,5.56-29.2,13.21-39.79,22.71-10.43,9.38-18.02,19.87-23.17,32.15-5.27,12.57-8,26.47-8,41.3,0,17.9,4.17,32.15,12.63,43.5,9.39,12.63,22.07,23.52,37.59,32.5,16.63,9.62,36.15,18.13,57.93,25.43,22.59,7.53,45.77,15.41,69.46,23.52l1.28,.41c25.31,8.63,49.64,18.19,72.35,28.38,24.5,10.95,46.98,25.14,66.68,42.17,20.1,17.44,36.49,39.1,48.66,64.24,12.28,25.31,18.48,56.6,18.48,92.86Z"/>
    <polygon points="7897.77 4490.39 7897.77 4622.35 7637.73 4622.35 7637.73 5334.05 7489.03 5334.05 7489.03 4622.35 7228.41 4622.35 7228.41 4490.39 7897.77 4490.39"/>
    <path d="M8544.25,4983.24c-3.24-4.81-6.66-9.27-10.25-13.44,18.31-6.31,35.39-13.96,51.09-22.82,26.36-14.89,49.07-33.25,67.55-54.63,18.48-21.32,32.84-45.76,42.63-72.64,9.73-26.82,14.66-55.9,14.66-86.54,0-36.61-6.37-70.32-19-100.16-12.8-30.41-32.79-56.71-59.32-78.14-26.3-21.14-59.61-37.42-99.06-48.37-38.35-10.66-84.46-16.1-137.12-16.1h-247.24v843.67h148.7v-335.11h62.1c16.8,0,22.94,2.55,24.39,3.36,4.29,2.32,8.81,6.78,13.55,13.5l208.08,286.28c13.03,20.91,33.95,31.98,60.53,31.98h136.42l-257.72-350.81Zm-247.35-366.51h98.54c57.87,0,101.2,10.83,128.83,32.15,26.36,20.45,39.16,50.57,39.16,92.16,0,20.68-3.59,39.74-10.72,56.54-7.01,16.63-17.2,30.59-31.16,42.58-14.08,12.16-32.09,21.78-53.41,28.56-22.18,7.07-48.14,10.6-77.16,10.6h-94.08v-262.59Z"/>
    <path d="M9583.88,4598.66l-431.68,606.28h439.96v129.12h-642.48v-62.85c0-8.34,1.56-16.45,4.58-24.21,2.66-6.72,5.62-12.69,9.09-18.36l.75-1.16,432.78-607.96h-425.89v-129.12h627.88v60.65c0,16.22-4.87,31.98-14.48,46.86l-.52,.75Z"/>
    <path d="M10603.65,4739.6c-19.93-52.54-48.54-98.54-85.04-136.77-36.44-38.29-80.87-68.41-132.02-89.56-51.04-21.14-108.04-31.8-169.56-31.8s-118.4,10.66-169.21,31.8c-51.04,21.2-95.41,51.32-131.85,89.56-36.49,38.23-65.05,84.23-84.98,136.77-19.87,52.37-29.89,110.53-29.89,172.92s10.02,120.37,29.89,172.68c19.93,52.66,48.54,98.65,84.98,136.71,36.5,38,80.87,67.95,131.9,88.98,50.98,20.97,107.86,31.57,169.15,31.57s118.35-10.6,169.44-31.57c51.21-20.97,95.64-50.92,132.13-88.98,36.44-38.06,65.05-84.05,85.04-136.71,19.81-52.31,29.89-110.41,29.89-172.68s-10.08-120.55-29.89-172.92Zm-386.61,468.17c-39.97,0-76.75-6.78-109.43-20.16-32.15-13.15-59.9-32.38-82.6-57.18-22.94-24.97-40.9-55.96-53.35-92.11-12.63-36.67-19.06-79.01-19.06-125.82s6.43-89.33,19.12-126.23c12.45-36.44,30.41-67.49,53.29-92.45,22.65-24.68,50.46-44.03,82.66-57.35,32.5-13.5,69.28-20.33,109.37-20.33s77.45,6.84,109.89,20.33c32.26,13.38,60.01,32.67,82.49,57.29,22.59,24.85,40.43,55.96,52.95,92.51,12.69,36.9,19.12,79.36,19.12,126.23s-6.43,89.15-19.12,125.82c-12.46,36.26-30.3,67.25-52.95,92.16-22.53,24.74-50.22,43.97-82.38,57.12-32.67,13.38-69.69,20.16-110,20.16Z"/>
    <path d="M11415.98,5069.96c0,37.42-6.49,73.16-19.29,106.18-13.03,33.6-32.21,63.03-56.94,87.59-24.85,24.68-55.61,44.26-91.53,58.28-35.63,13.96-76.53,21.03-121.54,21.03-54.74,0-105.37-10.14-150.55-30.12-44.95-19.93-83.94-47.21-115.8-81.04l-10.6-11.24,40.32-66.15c4.46-6.08,9.96-11.3,16.28-15.52,15.01-9.73,33.95-10.54,52.89,1.56,6.02,3.82,12.92,8.75,22.3,15.93,7.59,5.73,16.39,12.17,26.3,19.12,9.03,6.37,19.58,12.34,31.4,17.78,11.59,5.39,24.68,9.79,40.09,13.5,15.06,3.59,32.15,5.39,50.8,5.39,23.34,0,44.26-3.19,62.16-9.5,17.49-6.14,32.44-14.83,44.43-25.84,11.82-10.95,20.74-23.69,27.11-39.04,6.43-15.35,9.62-32.9,9.62-52.14s-4.23-36.26-12.63-48.08c-9.15-12.86-21.72-23.98-37.25-33.08-16.8-9.79-36.09-18.13-57.52-24.85-23.17-7.3-46.75-14.83-70.67-22.48-24.85-7.94-49.3-17.09-72.53-27.23-25.03-10.89-47.62-25.26-67.08-42.75-19.81-17.73-36.03-40.26-48.25-67.02-12.28-26.76-18.48-59.67-18.48-97.72,0-30.76,6.08-61.11,18.19-90.14,11.99-28.96,29.77-54.97,52.77-77.33,22.94-22.36,51.38-40.38,84.52-53.64,33.08-13.27,71.31-19.93,113.6-19.93,47.27,0,90.95,7.59,129.88,22.65,39.04,15.06,73.97,37.25,103.86,65.92l10.89,10.43-33.89,66.21c-4.87,8.05-10.2,14.13-16.39,18.54-7.47,5.33-16.51,8.11-26.18,8.11-10.89,0-22.19-4.4-34.47-13.5-8.86-6.55-19.12-13.27-30.47-19.99-11.35-6.78-25.78-13.27-42.87-19.23-15.87-5.56-35.86-8.4-59.2-8.4-21.95,0-41.25,2.9-57.35,8.57-15.81,5.56-29.14,13.21-39.74,22.71-10.49,9.38-18.07,19.87-23.23,32.15-5.27,12.57-7.93,26.47-7.93,41.3,0,17.9,4.11,32.15,12.63,43.5,9.39,12.63,22.01,23.52,37.6,32.5,16.57,9.62,36.09,18.13,57.93,25.43,22.13,7.36,44.78,15.12,67.95,23l2.78,.93c25.26,8.63,49.58,18.19,72.35,28.38,24.5,10.95,46.92,25.14,66.62,42.17,20.16,17.44,36.55,39.1,48.72,64.24,12.22,25.31,18.42,56.6,18.42,92.86Z"/>
    <polygon points="12284.2 4490.39 12284.2 4622.35 12024.16 4622.35 12024.16 5334.05 11875.46 5334.05 11875.46 4622.35 11614.9 4622.35 11614.9 4490.39 12284.2 4490.39"/>
    <path d="M13623.21,4490.39l-263.17,843.67h-127.09l-199.74-601.47-200.84,601.47h-127.04l-263.17-843.67h117.77c14.19,0,26.53,3.82,36.61,11.35,10.14,7.47,16.86,17.38,19.93,29.31l162.55,546.9,185.43-547.94c3.54-10.14,10.08-19.06,19.52-26.88,10.14-8.46,22.48-12.74,36.67-12.74h31.4c14.43,0,26.65,4,36.32,11.88,8.63,7.01,15.18,15.99,19.46,26.7l.41,1.04,184.21,546.2,162.72-545.51c2.9-10.49,9.5-20.04,19.47-28.04,10.19-8.11,22.42-12.28,36.38-12.28h112.21Z"/>
    <path d="M14608.92,4739.6c-19.93-52.54-48.55-98.54-85.04-136.77-36.44-38.29-80.87-68.41-132.02-89.56-51.04-21.14-108.04-31.8-169.56-31.8s-118.4,10.66-169.21,31.8c-51.04,21.2-95.41,51.32-131.85,89.56-36.49,38.23-65.05,84.23-84.98,136.77-19.87,52.37-29.89,110.53-29.89,172.92s10.02,120.37,29.89,172.68c19.93,52.66,48.55,98.65,84.98,136.71,36.5,38,80.87,67.95,131.91,88.98,50.98,20.97,107.86,31.57,169.15,31.57s118.35-10.6,169.44-31.57c51.21-20.97,95.64-50.92,132.13-88.98,36.44-38.06,65.05-84.05,85.04-136.71,19.81-52.31,29.89-110.41,29.89-172.68s-10.08-120.55-29.89-172.92Zm-386.61,468.17c-39.97,0-76.81-6.78-109.48-20.16-32.09-13.15-59.84-32.38-82.55-57.18-22.94-24.97-40.9-55.96-53.35-92.11-12.63-36.67-19.06-79.01-19.06-125.82s6.43-89.33,19.06-126.23c12.51-36.44,30.47-67.54,53.35-92.45,22.65-24.68,50.46-44.03,82.66-57.35,32.5-13.5,69.28-20.33,109.37-20.33s77.39,6.84,109.89,20.33c32.26,13.38,60.01,32.67,82.49,57.29,22.59,24.85,40.43,55.96,52.95,92.51,12.69,36.9,19.06,79.36,19.06,126.23s-6.37,89.15-19.06,125.82c-12.45,36.26-30.3,67.25-52.95,92.16-22.53,24.74-50.22,43.97-82.37,57.12-32.67,13.38-69.69,20.16-110.01,20.16Z"/>
  </g>
</svg>
