<svg xmlns="http://www.w3.org/2000/svg" viewBox="6200 0 3000 3400" fill="#1D1D1B">
  <path fill-rule="evenodd" d="M7846.24,997.68l128.36-152.23c13.32-17.14,21.58-22.65,34.54-40.35,23.81-32.51,150.68-167.7,155.92-192.16,5.87-27.3-8.41-33.23-21.64-47.98-20.26-22.56-43.96-56.3-64.61-78.74l-193.95-228.46c-26.52-29.38-32.78-57.52-85.44-57.52h-642.17c-39.22,0-58.86,29.77-78.74,55.64-59.07,76.89-168.86,193.06-228.4,269.05-12.7,16.21-18.63,20.8-31.83,36.21-46.67,54.54-18.86,65.3,72.09,173.45l128.77,150.38c22.44,26.11,41.45,53.82,64.7,78.5l29.56,35.08c-501.71,156.49-865.92,624.71-865.92,1177.98,0,681.36,552.35,1233.71,1233.71,1233.71s1233.74-552.35,1233.74-1233.71c0-554.29-365.52-1023.22-868.7-1178.85Zm-810.29-398.36c-5.42-5.42-5.42-14.31,0-19.73l171.24-171.24c5.42-5.42,14.3-5.42,19.73,0l171.24,171.24c5.42,5.42,5.42,14.3,0,19.73l-171.24,171.24c-5.42,5.42-14.31,5.42-19.73,0l-171.24-171.24Zm445.24,2645.88c-590.2,0-1068.67-478.47-1068.67-1068.67,0-503.86,348.68-926.28,817.91-1039.1,40.2-9.69,81.33-17.08,123.17-22.02,6.35-.77,12.67-1.49,19.04-2.12,6.38-.66,12.75-1.22,19.16-1.73,7.3-.66,14.66-1.19,22.02-1.61,3.67-.27,7.36-.48,11.06-.66,.42-.03,.86-.06,1.31-.06,3.76-.21,7.51-.36,11.3-.51,1.25-.06,2.5-.12,3.76-.15,4.11-.15,8.22-.3,12.34-.39,4.44-.12,8.88-.21,13.35-.27h1.25c4.32-.06,8.64-.09,12.99-.09,6.71,0,13.38,.06,20.03,.21,3.52,.03,7.03,.12,10.52,.24,1.1,0,2.21,.03,3.31,.09,3.82,.12,7.6,.24,11.39,.42,2,.06,3.99,.15,5.99,.27,3.52,.15,7,.33,10.49,.57,.86,0,1.7,.06,2.53,.15,5.01,.27,10.01,.63,14.99,.98,5.25,.36,10.46,.77,15.68,1.25,10.43,.89,20.8,1.97,31.14,3.22,41.34,4.83,81.99,12.04,121.74,21.52,470.75,111.73,820.9,534.86,820.9,1039.79,0,590.2-478.47,1068.67-1068.7,1068.67Z"/>
  <path d="M8053.47,2704.08c-10.56,0-21.18-3.58-29.9-10.91l-572.03-480.83c-.44-.37-.88-.74-1.31-1.13-4.87-4.35-8.63-9.52-11.22-15.12-2.54-5.48-4.05-11.54-4.27-17.93-.02-.66-.03-1.32-.03-1.99v-539.42c0-25.68,20.82-46.5,46.5-46.5s46.5,20.82,46.5,46.5v518.12l555.7,467.11c19.66,16.52,22.2,45.86,5.68,65.51-9.2,10.94-22.36,16.58-35.62,16.58Z"/>
</svg>
